<svg width="20" height="18" viewBox="0 0 20 18" fill="currentColor" xmlns="http://www.w3.org/2000/svg">
<path d="M19.46 4.57252C19.349 4.13828 19.1778 3.72173 18.9512 3.33502C18.7336 2.93273 18.4554 2.56636 18.1262 2.24877C17.6491 1.7732 17.084 1.39494 16.4625 1.13502C15.2115 0.621579 13.8085 0.621579 12.5575 1.13502C11.97 1.38367 11.4303 1.73262 10.9625 2.16627L10.8937 2.24877L9.99999 3.14252L9.10624 2.24877L9.03749 2.16627C8.56965 1.73262 8.02994 1.38367 7.44249 1.13502C6.19145 0.621579 4.78853 0.621579 3.53749 1.13502C2.91597 1.39494 2.3509 1.7732 1.87374 2.24877C1.22111 2.88379 0.759126 3.68869 0.539991 4.57252C0.423411 5.02135 0.367911 5.48385 0.374991 5.94752C0.374991 6.38339 0.429991 6.81789 0.539991 7.24002C0.655262 7.66633 0.821459 8.0772 1.03499 8.46377C1.2656 8.86115 1.54761 9.22639 1.87374 9.55002L9.99999 17.6763L18.1262 9.55002C18.4521 9.22964 18.7312 8.86252 18.9512 8.46377C19.3978 7.70079 19.6306 6.83157 19.625 5.94752C19.6321 5.48385 19.5766 5.02134 19.46 4.57252ZM18.085 6.81377C17.9203 7.44203 17.5931 8.01585 17.1362 8.47752L9.97249 15.6275L2.80874 8.47752C2.5753 8.24242 2.37206 7.97914 2.20374 7.69377C2.04535 7.41145 1.92074 7.11147 1.83249 6.80002C1.76204 6.48861 1.72516 6.17054 1.72249 5.85127C1.72436 5.52287 1.76123 5.1956 1.83249 4.87502C1.91815 4.56267 2.04289 4.26238 2.20374 3.98127C2.36874 3.69252 2.57224 3.43127 2.80874 3.19752C3.16197 2.84902 3.57695 2.56926 4.03249 2.37252C4.95046 2.00529 5.97452 2.00529 6.89249 2.37252C7.34624 2.56089 7.75599 2.83727 8.10249 3.18377L9.97249 5.06752L11.8425 3.18377C12.1887 2.83665 12.5999 2.56101 13.0525 2.37252C13.9705 2.00529 14.9945 2.00529 15.9125 2.37252C16.3676 2.56914 16.7829 2.84964 17.1362 3.19752C17.3755 3.42439 17.5762 3.68839 17.7275 3.98127C18.046 4.54291 18.2119 5.17813 18.2087 5.82377C18.2274 6.156 18.1997 6.48922 18.1262 6.81377H18.085Z" fill="currentColor"/>
</svg>
